<?xml version="1.0" encoding="UTF-8" standalone="no"?>
<svg width="521px" height="98px" viewBox="0 0 521 98" version="1.1" xmlns="http://www.w3.org/2000/svg" xmlns:xlink="http://www.w3.org/1999/xlink" xmlns:sketch="http://www.bohemiancoding.com/sketch/ns">
    <title>Slice 1</title>
    <description>Created with Sketch (http://www.bohemiancoding.com/sketch)</description>
    <defs></defs>
    <g id="Page-1" stroke="none" stroke-width="1" fill="none" fill-rule="evenodd" sketch:type="MSPage">
        <path d="M44.5,69.5 L44.5,13" id="Line" stroke="#FFFFFF" stroke-width="5" stroke-linecap="round" sketch:type="MSShapeGroup"></path>
        <path d="M52.5,29.5 L52.5,77.5104141" id="Line" stroke="#FFFFFF" stroke-width="5" stroke-linecap="round" sketch:type="MSShapeGroup"></path>
        <circle id="Oval-1" stroke="#FFFFFF" stroke-width="5" sketch:type="MSShapeGroup" cx="49" cy="49" r="46"></circle>
        <text id="ThankBank" sketch:type="MSTextLayer" font-family="Kirvy" font-size="76.3885603" font-weight="normal" letter-spacing="-1.39999998" fill="#FFFFFF">
            <tspan x="129" y="80">ThankBank</tspan>
        </text>
        <path d="M52.5,50.5 C52.5,50.5 68.2490225,52.9892578 68.2490234,64.2392578 C68.2490234,73 62.4628906,78.4499092 50.9814453,78.25 C33.9586436,78.4499083 28.5,70.5 28.5,70.5" id="Line" stroke="#FFFFFF" stroke-width="5" stroke-linecap="round" stroke-linejoin="round" sketch:type="MSShapeGroup"></path>
        <path d="M60.5,19.5 C60.5,19.5 66.25,23 66.25,28.5 C66.25,33 64.25,41.1999092 47.25,41 C37,41.1999092 30.25,33 30.25,33" id="Line" stroke="#FFFFFF" stroke-width="5" stroke-linecap="round" stroke-linejoin="round" sketch:type="MSShapeGroup" transform="translate(48.000000, 30.500000) rotate(-180.000000) translate(-48.000000, -30.500000) "></path>
    </g>
</svg>